<svg height="300" viewBox=".6 .47 254.81 254.94" width="300" xmlns="http://www.w3.org/2000/svg"><path d="m126.26 16.42c-1.5-6.09-2.35-13.31 4.97-15.88q.72-.25.38.42-2.05 4.08-1.59 7.67c.85 6.66 4.2 12.75-4.09 16.74q-1.64.8-.89-.87c1.2-2.62 1.94-5.16 1.22-8.08z" fill="#161513"/><path d="m114.33 15.81c-2.19-5.21-2.46-10.97 2.82-14.47q1.77-1.16 1.11.85c-1.57 4.77-.13 8.25 1.29 12.7q2.47 7.7-4.83 11.6-.98.52-.56-.51 2.18-5.39.17-10.17z" fill="#161513"/><path d="m148.05 2.72c-2.22 3-3.23 6.28-2.9 10.3.5 6.05-.38 11.09-7.39 12.68q-1.61.37-.61-.95c1.82-2.39 3.17-4.96 2.86-8.1-.66-6.67.39-12.78 7.75-14.39a.29.29 0 0 1 .29.46z" fill="#161513"/><path d="m103.21 18.72c-3.14-5.58-4.3-11.33 1.45-16.06a.36.36 0 0 1 .58.32q-.67 5.99.67 8.8c3.03 6.34 5.45 11.82-1.67 16.73a.34.33-11.6 0 1 -.52-.34c.65-3.4 1.31-6.21-.51-9.45z" fill="#161513"/><path d="m153.31 19.28c.28-6.66.76-12.4 8.21-14.28q2.15-.54.74 1.18c-1.91 2.33-3.22 4.95-3.36 8.06-.11 2.19-.06 4.48-.65 6.6q-1.64 5.96-8.7 6.5-.79.06-.25-.52c1.87-2 3.89-4.76 4.01-7.54z" fill="#161513"/><path d="m92.62 7.01c-.87 5.16 1.84 8.14 4.06 12.3q3.7 6.95-2.42 11.84-.94.75-.72-.43c.61-3.36.12-6.38-1.78-9.3-3.13-4.8-5.08-10.33-.41-15.06q1.66-1.68 1.27.65z" fill="#161513"/><path d="m77.62 12.98q.77-1.77 1.95-2.85.74-.68.7.32-.19 4.34 1.83 7.71c1.51 2.54 3.76 4.62 4.81 7.39q1.92 5.04-2.21 9.56-1.33 1.46-1.04-.49c.47-3.2-.32-6.17-2.39-8.63-3.27-3.89-5.68-8.38-3.65-13.01z" fill="#161513"/><path d="m164.2 22.87c.72-6.34 2.54-12.52 10.19-12.97a.41.41 0 0 1 .35.65q-.93 1.24-1.96 2.4c-3.67 4.15-2.01 10.18-5.1 14.64q-2.32 3.34-7.96 3.25-.79-.02-.22-.57c2.21-2.12 4.33-4.13 4.7-7.4z" fill="#161513"/><path d="m74.31 39.96c-.16-3.57-1-6.39-3.57-8.85-4.26-4.06-7.46-9.78-3.25-15.05q.9-1.13 1.02.31.35 4.56 2.91 7.56c4.42 5.21 9.49 9.51 3.6 16.28q-.67.76-.71-.25z" fill="#161513"/><path d="m187.38 17.16c-4.44 3.34-4.97 6.87-6.45 11.67q-2.37 7.65-10.49 6.63-.98-.13-.16-.67c3.06-2.03 5.14-4.6 5.87-8.28 1.09-5.58 4.47-11.1 10.98-10.3q1.29.16.25.95z" fill="#161513"/><path d="m56.04 22.99q.77-1.54 1.14.14c.74 3.36 2.53 6.49 5.3 8.63 4.51 3.5 7.83 7.98 4.21 13.81q-.93 1.49-1.19-.25c-.52-3.4-2.03-5.94-4.82-8.04-4.59-3.44-7.49-8.52-4.64-14.29z" fill="#161513"/><path d="m193.53 31.56c-2.21 6.07-4.63 10.81-12.28 9.53q-1.88-.32-.19-1.19c2.62-1.34 4.81-3.26 5.82-6.07 1.99-5.52 4.4-10.86 11.26-10.52q2.76.13.51 1.74-3.71 2.64-5.12 6.51z" fill="#171111"/><path d="m57.5 53c-.86-3.16-2.21-5.92-5-7.79-5.23-3.5-9.51-7.56-6.86-14.22q.67-1.68 1.18.05c.94 3.17 2.82 5.82 5.57 7.67 5.36 3.61 9.4 7.05 5.73 14.35a.33.33 0 0 1 -.62-.06z" fill="#161513"/><path d="m198.03 40.75c2.41-5.56 6.65-10.54 13.38-8.34a.42.42 0 0 1 .06.77q-2.01 1.06-3.74 2.47c-5.83 4.76-4.93 15.57-16.33 12.21q-1.74-.51-.03-1.1 4.77-1.65 6.66-6.01z" fill="#161513"/><path d="m222.55 127.99a94.56 94.56 0 0 1 -94.56 94.56 94.56 94.56 0 0 1 -94.56-94.56 94.56 94.56 0 0 1 94.56-94.56 94.56 94.56 0 0 1 94.56 94.56zm-2.95 0a91.62 91.62 0 0 0 -91.62-91.62 91.62 91.62 0 0 0 -91.62 91.62 91.62 91.62 0 0 0 91.62 91.62 91.62 91.62 0 0 0 91.62-91.62z" fill="#161513"/><path d="m43.6 46.92c5.66 3.03 10.2 6.29 7.22 13.69q-.43 1.07-.82-.01c-1.19-3.32-2.82-5.85-6.04-7.41-5.39-2.62-9.51-6.37-7.95-13q.46-1.96 1.3-.13 2.12 4.63 6.29 6.86z" fill="#161513"/><path d="m221.66 42.89q-2.02.96-3.75 2.05c-3.59 2.27-4.7 6.64-7.82 9.36q-3.91 3.4-9.32 1.33-1.99-.77.05-1.39c2.75-.85 4.86-1.97 6.46-4.54 3.44-5.48 7.03-10.26 14.32-7.8q1.25.42.06.99z" fill="#161513"/><path d="m130.7449 57.7769a6.21 4.78 91.8 0 1 -4.5825-6.357 6.21 4.78 91.8 0 1 4.9727-6.0568 6.21 4.78 91.8 0 1 4.5825 6.357 6.21 4.78 91.8 0 1 -4.9727 6.0568zm.0752-2.1081a4.09 2.77 91.4 0 0 2.8691-4.0211 4.09 2.77 91.4 0 0 -2.6693-4.1565 4.09 2.77 91.4 0 0 -2.8691 4.0211 4.09 2.77 91.4 0 0 2.6693 4.1565z" fill="#171111"/><path d="m116.2602 58.3402a6.14 4.79 82.7 0 1 -5.5314-5.4816 6.14 4.79 82.7 0 1 3.971-6.6988 6.14 4.79 82.7 0 1 5.5314 5.4816 6.14 4.79 82.7 0 1 -3.971 6.6988zm-.3083-2.0488a4.07 2.78 83.2 0 0 2.2785-4.3706 4.07 2.78 83.2 0 0 -3.2423-3.7122 4.07 2.78 83.2 0 0 -2.2785 4.3706 4.07 2.78 83.2 0 0 3.2423 3.7122z" fill="#171111"/><path d="m147.46 50.84-2.31 8.24a.65.65 0 0 1 -.93.39l-.26-.14q-.78-.41-.54-1.27.96-3.34 2.22-7.19.2-.61-.18-1.13-.46-.64-1.57-.9-.74-.17-.63-.93l.08-.5a.45.44-78.5 0 1 .54-.36l6.63 1.62q.94.23.44 1.06l-.18.31a.65.64-73.1 0 1 -.59.32l-1.98-.06q-.58-.02-.74.54z" fill="#171111"/><path d="m37.3 56.74q9.19 3.51 7.02 11.73-.43 1.63-1.15.1c-1.36-2.88-2.98-5.06-6.09-6.17-6.07-2.17-11.04-5.84-9.41-13.01a.38.37 32.1 0 1 .66-.15q.85 1.08 1.59 2.28c1.54 2.5 4.66 4.18 7.38 5.22z" fill="#161513"/><path d="m100.21 58.51 1.57 3.31a.67.67 0 0 1 -.42.93l-.42.13a.84.82-19.9 0 1 -1-.46l-3.96-9.32a1.04 1.03 64.8 0 1 .47-1.32q2.62-1.38 5.17-1.9a.55.54 84.4 0 1 .65.54l-.01.4q-.01.64-.59.89l-2.88 1.24a.92.91-18.8 0 0 -.52 1.05q.38 1.6 1.99 1.2 1.27-.32 2.42-.67a.7.7 0 0 1 .9.8q-.03.14-.1.26-.4.77-1.27 1.07-.99.35-1.75.91-.52.37-.25.94z" fill="#171111"/><path d="m207.5 62.28c2.87-.64 5.19-1.27 7.12-3.63 4.02-4.93 8.01-9.79 14.99-6.87q2.02.84-.09 1.44-2.1.6-3.88 1.58c-3.52 1.94-4.93 5.7-8.01 8.1q-4.73 3.67-10.28.28-1.04-.63.15-.9z" fill="#161513"/><path d="m160.6594 63.4588a1.31 1.31 0 0 1 -1.699.7387l-4.5962-1.8105a1.31 1.31 0 0 1 -.7388-1.699l3.3352-8.4668a1.31 1.31 0 0 1 1.699-.7387l4.5962 1.8105a1.31 1.31 0 0 1 .7388 1.699zm1.1459-7.613a2.01 1.53 13.4 0 0 -1.6007-1.9541 2.01 1.53 13.4 0 0 -2.3099 1.0225 2.01 1.53 13.4 0 0 1.6007 1.9541 2.01 1.53 13.4 0 0 2.3099-1.0225zm-1.8669 5.1909a2.18 1.67 27.8 0 0 -1.1495-2.494 2.18 1.67 27.8 0 0 -2.7073.4606 2.18 1.67 27.8 0 0 1.1495 2.494 2.18 1.67 27.8 0 0 2.7073-.4606z" fill="#171111"/><path d="m82.14 64.19q.45.67 1.16.28 1.06-.59 1.72-1.49a1.35 1.34 45.4 0 0 .01-1.57q-.84-1.18-1.29-2.48-.23-.67.43-.95.31-.13.69.05a.72.63 82.7 0 1 .28.25l5.38 8.26a1.42 1.42 0 0 1 .02 1.53l-.17.27a.34.34 0 0 1 -.54.06q-1.5-1.5-2.36-3.31a.95.95 0 0 0 -1.28-.45q-.98.49-1.72 1.29-.73.79-.18 1.71l1.61 2.71a.85.85 0 0 1 -.32 1.17l-.41.23a.47.47 0 0 1 -.63-.16l-5.76-9.14q-.51-.81.39-1.16l.3-.11a.71.71 0 0 1 .85.26z" fill="#161513"/><path d="m30.91 72.18c-6.17-1.51-11.48-4.54-10.95-11.66q.1-1.43.95-.27 2.24 3.05 5.24 4.63c2.84 1.5 6.02 1.71 8.76 3.45q4.78 3.02 3.75 9.59-.16 1.06-.73.15c-1.68-2.71-3.74-5.08-7.02-5.89z" fill="#161513"/><path d="m171.5 68.98q-1.83-2.84-4.57-.86-.73.53-1.28-.19l-.24-.31a.52.52 0 0 1 .13-.76l9.38-6.09a1.14 1.12 51.2 0 1 1.42.16q.72.72.39 1.66-1.76 5.01-4.02 10.06a.64.63 18.2 0 1 -.73.36q-.83-.2-.83-1.08 0-.95.42-1.86.26-.56-.07-1.09zm.2792-2.1989a1.58 1.04 125.2 0 0 1.7606-.6916 1.58 1.04 125.2 0 0 .061-1.8906 1.58 1.04 125.2 0 0 -1.7606.6916 1.58 1.04 125.2 0 0 -.061 1.8906z" fill="#161513"/><path d="m237.31 64.03c-3.92.36-7.19 2.4-9.75 5.35-3.68 4.23-8.25 6.19-13.63 2.75q-1.76-1.13.32-1.27 5.11-.35 8.34-4.15c3.71-4.37 9.52-7.4 14.94-3.49q.97.7-.22.81z" fill="#161513"/><path d="m180.11 77.2q.42.71 1.07 1.23.84.68 1.04 1.74.07.38-.06.76a.7.69 33.3 0 1 -1.17.24l-3.84-4.21a.62.62 0 0 1 .05-.88l7.9-7.14a.58.57-56.9 0 1 .54-.12q.6.18.63.57.08 1.13-.78 1.85-2.57 2.14-5.19 4.65a1.07 1.07 0 0 0 -.19 1.31z" fill="#161513"/><path d="m76.88 75.19-.19-.29a1.06 1.05-29 0 0 -1.34-.38l-3.34 1.59q-.44.21-.92.17c-5.19-.45-4.19-6.62.27-7.02q1.69-.15 1.78 1.53.03.58-.54.45-1.96-.46-3.1 1.22-.28.42-.02.85.39.64 1.17.72c2.19.23 2.9-2.7 5.87-1.37 4.65 2.1 1.53 9.01-3.56 6.77q-.48-.21-.51-.72-.01-.27.15-.47a.95.94 22.1 0 1 .83-.35q1.73.16 3.14-.93.98-.75.31-1.77z" fill="#161513"/><path d="m19.05 75.26c3.31 1.6 7.06 1.44 10.37 3.07q4.82 2.39 4.57 8.75-.05 1.3-.88.29c-1.92-2.36-4.34-4.48-7.46-4.94-6.32-.92-11.75-3.18-12.08-10.28q-.08-1.66 1.01-.41 2.08 2.37 4.47 3.52z" fill="#161513"/><path d="m243.21 75.71c-4.42.08-7.51 1.66-10.72 4.69q-6.35 5.95-13.29.97-1.76-1.26.4-1.23c2.85.05 5.7-.67 7.87-2.57 4.83-4.23 10.34-7.55 16.07-2.83q1.14.94-.33.97z" fill="#161513"/><path d="m129.92 90.71q.37.75 1.12 1.25.44.29.72.73 1.88 2.88 3.9 5.81.8 1.15.6 2.78-.07.54.18 1.02c.94 1.87 3.15 3.23 3.34 5.34q.51 5.78.85 11.97.1 1.86-1.58 2.75-3.78 2-8.07 2.07-8.66.15-18.78.01c-2.88-.04-3.23-2.82-3.11-5.04a.67.67 0 0 0 -1.12-.54c-2.63 2.34-1.18 4.54.5 6.8q.37.49.06 1.04-2.04 3.68-3.13 7.99c-.95 3.72-3.12 6.19-7.14 6.49-2.4.19-4.2.25-5.47 2.75q-1.63 3.22-3.87 4.99-2.21 1.75-4.98 3.04a1.24 1.24 0 0 1 -1.63-.58q-4.98-10.17-5.45-19.66c-1.24-25.08 14.13-46.62 38.35-53.05q14.49-3.85 29.42 1.12 1.77.58 3.31 1.44c1.43.79 2.96 1.2 4.43 2 27.15 14.83 35.47 49.92 16.87 75.23q-12.06 16.41-33.5 20.56-2.73.53-9.5.35-5.36-.15-9.39-1.1-18.44-4.37-30.27-19.87a.95.95 0 0 1 .17-1.33c1.88-1.44 3.76-3.09 5.18-5.03 2.19-2.99 4.64-5.46 8.3-6.6q8.86-2.77 15.66-5.73a3.64 3.61-51.2 0 1 2.13-.24q8.62 1.66 17.6 1.25 1.22-.06 2.39-.3c2.68-.56 4 1.11 6.36 1.6 3.1.64 6.31.1 9.51.07a.34.34 0 0 1 .13.66l-8.43 3.43q-.66.27-1.31-.03-3.09-1.42-4.05 2.17-.31 1.17.88 1.33 4.37.6 7.18-.44 4.92-1.81 12.37-7.33.61-.45.61-1.2v-2.48q0-2.3-2.31-2.32l-5.64-.04q-1.31-.01-1.2-1.32.94-11.22-2.52-24a1.31 1.31 0 0 1 .94-1.61q3.21-.83 6.14-2.6a1.05 1.05 0 0 0 .1-1.73q-1.58-1.22-3.38-1.76-4.42-1.33-8.69-2.76a2.12 2.11 9.6 0 1 -1.45-2.03q.01-1.99-1.71-2.69-.44-.18-.56-.63-1.11-3.99 2.63-6.5 2.68-1.8 4.48-4.15 1.45-1.89-.77-1.03-1.93.74-3.45 2.58-1.33 1.61-.85-.42.09-.39.27-.73.65-1.2-.67-.83-1.85.51-2.89 2.05a1.31 1.27 11.8 0 1 -.87.55l-.38.05q-.53.08-.85.51l-3.54 4.69a1.4 1.4 0 0 1 -2.13.13q-.75-.78-1.7-1.24-.68-.34-.34.34z" fill="#171111"/><path d="m64.41 86.47q-.43.82.37 1.27l.88.49q1.09.61 1.74-.47l1.57-2.61q.44-.73 1.23-.42.14.05.29.1a.68.67-63.6 0 1 .33.99l-3.01 4.82a.99.99 0 0 1 -1.35.32l-8.64-5.27q-.39-.24-.2-.65 1.32-2.93 3.42-5.47a.49.49 0 0 1 .65-.1l.27.17q.95.6.3 1.51l-1.76 2.5q-.33.48-.18 1.03.24.87 1.32 1.05.7.11 1.09-.48l1.62-2.46a1.09 1.09 0 0 1 1.04-.48l.36.05a.54.54 0 0 1 .41.79z" fill="#161513"/><path d="m188.14 87.39 1.52 2.16q.57.81-.05 1.58-.19.23-.57.32a.69.69 0 0 1 -.74-.31l-2.95-4.71q-.34-.54.21-.87l8.79-5.27q.87-.52 1.42.31l.25.37a.51.5 57.9 0 1 -.16.72l-7.4 4.27q-.94.54-.32 1.43z" fill="#171111"/><path d="m13.37 86.43c4 1.85 8.57.66 12.42 2.74q4.16 2.25 4.5 7.69.09 1.39-.9.41c-2.34-2.29-4.95-4.02-8.39-4.08-5.98-.1-11.62-2.29-12.67-9q-.29-1.86 1.05-.54 1.77 1.75 3.99 2.78z" fill="#161513"/><path d="m231.2 88.62c5.78-3.46 11.33-7.54 17.43-1.55q.77.75-.3.7c-3.38-.15-6.6.36-9.42 2.23-5.22 3.46-9.98 6.5-15.43.7q-1.42-1.5.6-1.06 3.95.88 7.12-1.02z" fill="#161513"/><path d="m139.1 98.22q.04.09.03.19-.19 2.27-1.73.58-2.78-3.07-.71-7.71.36-.81 1.23-.98l.31-.06a.41.41 0 0 1 .47.52q-1.21 4.11.4 7.46z" fill="#161513"/><path d="m51.37 100.22a1.17 1.17 0 0 1 -.68-1.51l.77-2.06a4.97 4.75 20.7 0 1 6.33-2.69l1.95.74a4.97 4.75 20.7 0 1 2.97 6.2l-.78 2.06a1.17 1.17 0 0 1 -1.51.68zm2.34-1.33 5.78 2.35a.86.86 0 0 0 1.12-.47l.19-.48a3.07 2.78 22.1 0 0 -1.79-3.73l-1.69-.69a3.07 2.78 22.1 0 0 -3.89 1.42l-.2.48a.86.86 0 0 0 .48 1.12z" fill="#171111"/><path d="m26.73 107.74c-2.17-1.84-4.99-3.61-7.94-3.4-6.58.46-12.56-.48-14.36-7.9q-.35-1.42.77-.48c2.31 1.92 5.24 3.09 8.29 3.19 2.85.08 6.15-.24 8.79.78q4.46 1.72 5.26 7.36.18 1.28-.81.45z" fill="#161513"/><path d="m236.31 98.78c4.98-2.96 11.02-4.64 15.47.39q1.11 1.26-.56 1.09c-3.21-.32-6.39-.12-9.26 1.58-5.14 3.05-10.68 4.7-14.97-.86q-1.4-1.81.8-1.18c3.04.88 5.79.6 8.52-1.02z" fill="#161513"/><path d="m196.44 100.86c-.72-1.09-2.15-1.04-3.3-.95a.54.54 0 0 1 -.57-.61l.03-.26q.11-.87.99-.92l10.02-.63a1.45 1.43 60 0 1 .9.25q1.05.71.63 1.63-.25.58-.74.96-4.14 3.27-7.97 6.46a.58.57 54.2 0 1 -.86-.14l-.15-.27a1.03 1.02 54.2 0 1 .21-1.33q2.31-1.95.81-4.19zm4.8974-1.1817a1.68 1.08-26.2 0 0 -1.9842-.2273 1.68 1.08-26.2 0 0 -1.0306 1.7107 1.68 1.08-26.2 0 0 1.9842.2273 1.68 1.08-26.2 0 0 1.0306-1.7107z" fill="#161513"/><path d="m229.77 110.21c4.34 1.68 7.18.7 11.23-.91 5.12-2.05 10.29-1.82 13.33 3.36q.68 1.16-.6.72c-3.71-1.27-7.13-.88-10.6.75-5.33 2.51-10.63 2.69-14.13-3q-.97-1.6.77-.92z" fill="#161513"/><path d="m25.47 118.31c-3.59-1.93-5.88-3.04-10.11-2.33-5.81.97-11.25-.23-13.34-6.37q-.51-1.5.82-.65 4.38 2.77 9.29 2.06c6.5-.94 11.76-.69 13.91 6.82q.27.92-.57.47z" fill="#161513"/><path d="m56.15 112.23q-.61 1.27-.29 2.43.33 1.16 1.49 1.52.42.13.53.51.65 2.25-1.42 1.11-4.36-2.41-8.5-4.91a1.84 1.82 6.8 0 1 -.78-.98q-.28-.85.25-1.47.34-.38.84-.43 5.49-.45 10.91-.85a.44.44 0 0 1 .47.43l.01.33a.94.93 82.9 0 1 -.72.94c-1 .23-2.29.34-2.79 1.37zm-2.26 1.33.36-1.4a.43.43 0 0 0 -.31-.52l-.3-.08a2.44 1.08 14.6 0 0 -2.63.43l-.04.14a2.44 1.08 14.6 0 0 2.09 1.66l.3.08a.43.43 0 0 0 .53-.31z" fill="#171111"/><path d="m207.71 112.93a1.28 1.27 38.1 0 0 -2.35.28c-.53 1.96-.31 5.22-3.14 5.57q-4.38.54-4.52-3.87-.07-2.43 1.76-3.16 2.22-.87 1.17 1.27l-.65 1.32q-.63 1.28.39 2.28.49.49 1.3.23a1.04 1.03-85.3 0 0 .65-.56q.64-1.41.69-2.94a3.16 3.16 0 0 1 2.76-3.02c4.27-.56 5.27 4.78 2.24 6.8a.77.77 0 0 1 -1.08-.23q-.21-.33-.16-.71.1-.79.63-1.42.79-.95.31-1.84z" fill="#171111"/><path d="m230.48 120.64c2.67 1.18 5.81 2.19 8.73 1.24 6.21-2.03 13.02-2.8 16.05 4.07q.48 1.07-.59.57-4.7-2.25-9.97-.69-4.75 1.41-5.98 1.39-5.94-.05-8.73-6.09-.41-.89.49-.49z" fill="#161513"/><path d="m1.36 121.95c4.35 1.67 7.21 1.96 11.78.63 5.6-1.63 10.19.06 12.4 5.94q.3.82-.49.46c-2.78-1.25-5.53-2.51-8.64-1.71-6.2 1.6-12.66 2.17-15.67-4.67q-.47-1.07.62-.65z" fill="#161513"/><path d="m53.95 129.37q1.06.16 2.23 0a1.07 1.06 82.8 0 1 1.19.93l.05.39a.53.52 87 0 1 -.52.58l-10.88-.04q-.78 0-.77-.79c.04-2.93-.43-7.32 4-7.09 1.03.06 1.66.85 2.43 1.41a1.68 1.67-43.8 0 0 1.93.04l2.56-1.73q.81-.55 1.11.39c.24.76.08 1.65-.71 2.01q-1.66.77-3.07 1.6-3.04 1.79.45 2.3zm-5.389.1138a2.08 1.66 99.1 0 0 1.9681-1.7913 2.08 1.66 99.1 0 0 -1.3101-2.3163 2.08 1.66 99.1 0 0 -1.9681 1.7913 2.08 1.66 99.1 0 0 1.3101 2.3163z" fill="#161513"/><path d="m201.93 130.89q1.34.15 1.71-1.49.95-4.16 4.54-3.62c3.55.54 2.91 5.51.44 6.92a.97.95-50.5 0 1 -.77.08q-.55-.18-.78-.59-.27-.51.12-.93l1.57-1.67a.91.9 41.4 0 0 -.09-1.32q-.85-.72-1.82-.28-.63.28-.71.96c-.59 5.03-7.4 5.34-7.66.68q-.21-3.73 3.39-4.4.43-.08.72.23.26.26.2.64-.1.56-.59.87-.82.53-1.4 1.3a1.65 1.64 21.8 0 0 1.13 2.62z" fill="#171111"/><path d="m230.54 131.21c3.24 1.56 5.71 2.87 9.48 2.06 6.19-1.32 12.6-1.02 14.78 5.74q.33 1.04-.63.52c-2.47-1.33-5.21-2.32-8.05-1.92-6.93.97-12.9 2.64-16.12-5.9a.4.4 0 0 1 .54-.5z" fill="#161513"/><path d="m25.16 139.53c-5.54-2.9-8.55-.01-13.76.84q-7.18 1.17-10.41-4.61-.71-1.29.66-.78 5.08 1.88 9.65.01c5.75-2.34 11.21-2.64 14.66 3.73q.94 1.72-.8.81z" fill="#161513"/><path d="m54.64 143.42q1.15.24 2.41-.43.75-.4 1.48.06.16.11.28.29a.87.86-23.3 0 1 -.52 1.29l-10.01 2.59q-.65.16-.89-.46c-1.21-3.16-2.16-7.25 2.88-7.6q1.4-.09 2.46.7a1.14 1.12-80.8 0 1 .41.58l.69 2.25q.18.61.81.73zm-5.4833 1.2481a1.93 1.76 119.6 0 0 2.4836-.8088 1.93 1.76 119.6 0 0 -.577-2.5474 1.93 1.76 119.6 0 0 -2.4836.8088 1.93 1.76 119.6 0 0 .577 2.5474z" fill="#161513"/><path d="m209.0618 145.7711a6.16 4.77 14.2 0 1 -7.1419 3.1132 6.16 4.77 14.2 0 1 -4.8017-6.1354 6.16 4.77 14.2 0 1 7.1419-3.1132 6.16 4.77 14.2 0 1 4.8017 6.1354zm-2.0531-.4419a4.04 2.77 15.2 0 0 -3.1724-3.7323 4.04 2.77 15.2 0 0 -4.625 1.6139 4.04 2.77 15.2 0 0 3.1724 3.7323 4.04 2.77 15.2 0 0 4.625-1.6139z" fill="#161513"/><path d="m229.97 141.81c2.3 1.67 4.69 3.23 7.69 3 6.42-.5 12.55-.71 15.14 6.34q.99 2.69-1.26.91c-3.42-2.71-7.66-2.38-11.72-2.06-5.53.44-9.52-2.03-10.47-7.81q-.16-.96.62-.38z" fill="#171111"/><path d="m3.08 147.89c5.39 1.65 9.08-.81 13.86-2.64 4.51-1.74 8.71.26 10.83 4.41q.58 1.14-.58.61c-4.78-2.19-7.67-.27-11.98 1.44-4.63 1.83-9.89 1.68-12.79-2.97q-.81-1.3.66-.85z" fill="#161513"/><ellipse fill="#161513" rx="1.28" ry=".61" transform="matrix(-.31730466 .94832366 -.94832366 -.31730466 89.15 151.48)"/><path d="m249.18 165.19c-2.57-2.19-5.46-3.51-8.91-3.57-6.19-.1-12.31-.82-12.81-8.66q-.11-1.8 1.05-.42c1.88 2.22 4.27 3.56 7.27 3.52 6.8-.08 13.03 1.43 14.15 8.72q.18 1.21-.75.41z" fill="#161513"/><path d="m60.47 156.55q-.04 3.16 3.51 3.42a.98.98 0 0 1 .9.94l.01.29q.02.46-.44.49l-11.16.64a1.07 1.06 78.4 0 1 -1.07-.71q-.36-1.01.46-1.7 4.01-3.38 8.32-6.94a.69.68 48.5 0 1 .93.06q.43.44.12 1.02-.5.95-1.24 1.68-.33.34-.34.81zm-1.3171 2.2315a1.52 1.05-23.6 0 0 -1.8133-.3537 1.52 1.05-23.6 0 0 -.9725 1.5707 1.52 1.05-23.6 0 0 1.8133.3537 1.52 1.05-23.6 0 0 .9725-1.5707z" fill="#161513"/><path d="m201.26 161.24a2 2 0 0 0 .29-3.26c-1.45-1.24-4.19-2.43-6.03-1.73q-2.1.8.18 4.13.47.68-.22 1.13-.19.12-.4.08-1.01-.17-1.57-.95c-2.79-3.86.49-7.25 4.47-6.45q2.48.5 4.34 1.88c2.51 1.87 2.76 5.49-.07 7.18q-.97.58-2.04.21l-.66-.23a.53.52 39.7 0 1 -.09-.95z" fill="#171111"/><path d="m21.08 161.63c-5.3 3.32-10.83 5.17-15.91.16q-1.19-1.18.48-1.01c4.18.42 7.35-.25 10.77-2.67 4.79-3.39 9.92-3.53 13.99 1.51q.98 1.23-.54.84c-3.17-.81-5.89-.65-8.79 1.17z" fill="#161513"/><path d="m232.18 167.08c6.84.8 13.1 2.36 13.28 10.52a.23.23 0 0 1 -.4.16q-3.34-3.45-6.93-4.39c-3.11-.82-6.45-.66-9.35-2.15q-4.36-2.24-4.55-7.42-.11-2.66 1.48-.52c1.52 2.04 3.92 3.5 6.47 3.8z" fill="#171111"/><rect fill="#161513" height="1.86" rx=".91" transform="matrix(.85172693 .52398591 -.52398591 .85172693 192.66 169.03)" width="12.22" x="-6.11" y="-.93"/><path d="m25.07 172.44c-4.84 3.82-10.84 6.49-16 1.51q-.91-.88.35-.8 5.59.32 9.66-2.96c4.97-4 9.57-5.85 15.29-.8q1.12.99-.37.87c-3.35-.29-6.22.04-8.93 2.18z" fill="#161513"/><path d="m62.24 172.03c-1.17-.06-3.15.27-4.25-.11q-.44-.16-.69-.51a.8.8 0 0 1 .71-1.27q6.39.5 10.32-2.78a.67.66 37.1 0 1 .68-.09q1.24.54-.38 2.13a1.12 1.05 7.1 0 1 -.33.24c-3.67 1.86-3.96 4.7-6.21 7.57a.61.61 0 0 1 -1.07-.23l-.1-.36a2.13 2.11-34.8 0 1 .32-1.74l1.41-2.02a.53.53 0 0 0 -.41-.83z" fill="#161513"/><path d="m184.34 174.56-1-2.18a.4.4 0 0 1 .26-.55l.4-.12q.73-.2 1.11.46l4.97 8.77a1.21 1.19 32.9 0 1 .16.73c-.13 1.32-1.15 1.81-2.25 1.28q-4.52-2.17-8.92-4.21-.44-.2-.61-.65-.14-.36 0-.72.23-.6.85-.42l1.93.57q.56.17 1.05-.13 1.26-.76 2.03-2.18.17-.32.02-.65zm2.95 5q-.27-.82-.73-1.5-1.02-1.54-2.18-.02a.78.78 0 0 0 -.01.95q.95 1.25 2.69.96a.3.3 0 0 0 .23-.39z" fill="#161513"/><path d="m233.53 184.8c-3.42-1.49-7.52-1.52-10.47-3.92q-3.57-2.89-3-8.49.08-.88.63-.19c1.59 1.99 3.4 4.39 5.96 5.05 6.28 1.59 14 3.58 13 11.96q-.09.75-.56.15-2.52-3.22-5.56-4.56z" fill="#171111"/><path d="m38.93 179.88c-3.31-.07-5.81.24-8.19 2.53-4.55 4.39-10.27 8.3-16.11 3.55q-1.03-.84.29-.88c4.43-.13 7.55-2.36 10.64-5.24 4.23-3.93 8.75-5.09 13.67-.71q.86.77-.3.75z" fill="#161513"/><path d="m73.79 181.37q.71 1.17 1.92 1.4.58.11 1-.31l2.64-2.63a.45.44 49 0 1 .67.05l.24.32a1.1 1.09-42.8 0 1 -.06 1.4q-3.32 3.69-6.75 7.32-.54.57-.86.54a.91.85-67.4 0 1 -.53-1.44q.95-1.24 1.79-2.41.7-.97-.18-1.79l-.5-.47q-1.26-1.17-2.43.09l-1.8 1.94a.61.61 0 0 1 -.87.01l-.27-.26q-.68-.68-.03-1.39l6.37-6.98q.64-.69 1.54-.42l.45.14a.39.39 0 0 1 .18.62l-2.4 2.81a1.25 1.24-40.5 0 0 -.12 1.46z" fill="#171111"/><path d="m224.83 194.31c-2.38-.95-4.93-1.47-6.95-3.12q-3.98-3.27-2.97-8.98.31-1.79 1.16-.18c1.49 2.83 3.31 4.85 6.43 5.79 6.21 1.85 11.14 4.97 10.5 12.22q-.11 1.31-.87.23-2.99-4.26-7.3-5.96z" fill="#161513"/><path d="m179.86 189.61 1.83-.8a.39.39 0 0 1 .54.36l-.01.45a1.89 1.88-18 0 1 -.75 1.46l-4.64 3.55a.44.43 48.7 0 1 -.57-.04l-.26-.26a.82.81-46.8 0 1 -.03-1.14q.78-.85 1.05-1.81.16-.6-.22-1.08l-4.61-5.94q-.58-.74.05-1.44l.3-.33a.43.43 0 0 1 .65.02l5.1 6.6q.63.81 1.57.4z" fill="#161513"/><path d="m37.75 191.26c-4.61 4.63-8.91 10.5-16.42 6.27q-1.15-.64.13-.93 2.39-.53 4.44-1.62c6.24-3.34 9.4-13.48 18.47-7.33q1.21.82-.23 1.07c-2.29.39-4.7.85-6.39 2.54z" fill="#161513"/><path d="m86.28 198.24a1.05 1.05 0 0 1 -1.44.36l-2.2-1.34a4.72 4.38-58.7 0 1 -1.29-6.31l1.28-2.1a4.72 4.38-58.7 0 1 6.2-1.76l2.19 1.34a1.05 1.05 0 0 1 .35 1.44zm-.6-2.5 3.22-5.49a.87.87 0 0 0 -.31-1.19l-.6-.35a2.86 2.61-59.6 0 0 -3.7 1.15l-1.2 2.05a2.86 2.61-59.6 0 0 .8 3.79l.6.35a.87.87 0 0 0 1.19-.31z" fill="#171111"/><rect fill="#161513" height="12.2" rx=".91" transform="matrix(.86074203 -.50904142 .50904142 .86074203 167.08 194.11)" width="1.9" x="-.95" y="-6.1"/><path d="m216.13 203.33c-5.31-2.19-9.18-5.97-7.31-12.26q.55-1.82 1.22-.04c1.1 2.9 2.98 5.14 5.9 6.32 5.84 2.34 10.55 6.29 9.08 12.97q-.32 1.49-1.02.13-2.52-4.9-7.87-7.12z" fill="#171111"/><path d="m102.31 196.09q.88-.5 1.68-1.26.5-.46.96 0a.83.82-48.4 0 1 .06 1.08q-2.98 3.84-5.96 7.67-.59.75-1.42 1.09a1.06 1.06 0 0 1 -1.46-.92q-.29-5.58.46-10.47.44-2.83 1.53-.18.24.59.35 1.2a2.57 2.56 70.1 0 0 3.8 1.79zm-3.5218 4.8214a1.73 1.06 95.7 0 0 1.2266-1.6161 1.73 1.06 95.7 0 0 -.883-1.8267 1.73 1.06 95.7 0 0 -1.2266 1.6161 1.73 1.06 95.7 0 0 .883 1.8267z" fill="#161513"/><path d="m158.4688 205.1893a6.19 4.77 68 0 1 -6.7415-3.9524 6.19 4.77 68 0 1 2.1039-7.5262 6.19 4.77 68 0 1 6.7415 3.9524 6.19 4.77 68 0 1 -2.1039 7.5262zm-.7632-1.9341a4.1 2.76 67.4 0 0 .9725-4.8459 4.1 2.76 67.4 0 0 -4.1237-2.7245 4.1 2.76 67.4 0 0 -.9725 4.8459 4.1 2.76 67.4 0 0 4.1237 2.7245z" fill="#171111"/><path d="m28.97 207.11c5.73-1.52 7.37-4.79 10.77-9.03 3.01-3.76 7.69-4.46 11.72-1.77q.7.47-.13.63c-3.05.59-5.89 1.87-7.66 4.59-3.34 5.14-8.24 9.69-14.79 6.47q-1.15-.56.09-.89z" fill="#161513"/><path d="m115.23 203.51q-.17.38.24.41l.66.05a.35.34-77.8 0 0 .35-.23l1.59-4.7q.17-.49.65-.3l.32.11a.74.73-72.8 0 1 .45.86l-2.32 9.6q-.24.99-1.25.93l-.4-.02a1.66 1.65-87.7 0 1 -1.56-1.7l.1-3.67q.01-.4-.33-.6-.42-.25-.79.01-.32.22-.45.61-.59 1.81-1.33 3.36-.47.98-1.53.73l-.42-.11q-1.47-.35-1.13-1.83l2.26-9.6a.58.58 0 0 1 .77-.41l.29.11a.78.77 14.4 0 1 .49.82l-.57 4.2q-.14 1.09.56.25 1.25-1.5 1.95-3.75.19-.64.86-.68 1.13-.08 1.27 1.04.28 2.26-.73 4.51z" fill="#171111"/><path d="m139.69 204.35 1.12 5.01a.59.59 0 0 1 -.4.69l-.24.07a.89.89 0 0 1 -1.14-.65l-2.27-9.9a.69.68-16 0 1 .45-.8q1.41-.46 2.27.83 1.29 1.93 2.8 3.35 1.86 1.74 1.17-.71l-1.02-3.58a1.05 1.04 67.5 0 1 .48-1.19l.38-.21a.55.55 0 0 1 .81.35l2.17 9.06q.95 3.99-2.21 1.37c-1.42-1.18-2.14-3-3.83-4.07q-.73-.45-.54.38z" fill="#171111"/><path d="m207.47 211.7c-5.32-2.76-7.95-7.26-5.28-13.2a.33.33 0 0 1 .61.02c1.09 2.93 2.4 5.84 5.28 7.41 5.49 3 9.97 6.72 8.01 13.56q-.62 2.16-1.38.05c-1.37-3.78-3.79-6.05-7.24-7.84z" fill="#171111"/><path d="m58.99 204.43c-2.79 1.02-5.72 2.41-7.19 5.16-2.99 5.59-6.82 10.48-13.93 8.31q-1.38-.42-.05-.98 5.11-2.17 7.81-7.24c2.95-5.54 6.77-8.76 13.38-5.96a.38.38 0 0 1 -.02.71z" fill="#161513"/><path d="m195.24 205.85c.55 2.75 1.75 6.06 4.2 7.7 5.08 3.39 9.75 8.24 6.5 14.79q-.74 1.5-1.1-.13c-.9-3.96-3.5-6.84-6.81-9.08-4.81-3.25-6.72-7.76-3.48-13.39q.49-.85.69.11z" fill="#171111"/><g fill="#161513"><path d="m62.28 214.48c-3.76 4.99-3.95 10.96-10.99 12.44q-1.81.38-3.44-.25-1.58-.61-.04-1.31c3.89-1.78 5.75-5.35 7.34-9.13 2.11-5.02 6.22-7.63 11.88-5.76q.66.22.09.61c-1.64 1.14-3.62 1.79-4.84 3.4z"/><path d="m194.07 235.35c-.63-3.84-2.61-6.87-5.65-9.34-4.39-3.57-6.3-8.45-2.33-13.55q.8-1.03.9.27c.15 2.16.3 4.36 1.8 6.06 4.13 4.66 11.06 9.52 6.57 16.81q-.99 1.6-1.29-.25z"/><path d="m64.01 225.24c1.77-6.04 4.46-10.34 11.94-9.03q.81.15.16.65c-3.47 2.66-5.2 3.54-6.41 8.11-1.48 5.56-5.12 10.17-11.23 9.4q-1.74-.21-.27-1.17 4.29-2.79 5.81-7.96z"/><path d="m180.34 226.41c4.36 4.68 7.71 10.04 3.36 15.92q-.85 1.15-.99-.28-.22-2.18-.84-4.21c-.88-2.85-3.31-5.21-5.17-7.59-3.04-3.88-3.41-8.14.13-12.1q1.19-1.33 1.06.45c-.19 2.8.51 5.72 2.45 7.81z"/><path d="m80.38 228.66c-1.11 6.39-3.22 12.31-10.62 12.42q-1.54.02-.39-1.01c2.58-2.3 4.27-5.01 4.96-8.43 1.26-6.32 3.18-11.04 10.89-10.61q.83.05.23.62c-2.06 1.96-4.57 4.12-5.07 7.01z"/><path d="m170.6 246.41c.46-6.55-4.08-9.02-6.01-14.4q-1.77-4.91 2.79-9.54 1.16-1.17.87.45c-.62 3.54.37 6.89 2.59 9.78 3.29 4.29 5.13 9.71 1.17 14.29q-1.58 1.83-1.41-.58z"/><path d="m85.55 234.76c.18-5.74 3.24-9.5 9.4-9.93a.48.48 0 0 1 .36.82c-2.35 2.27-4.3 4.97-4.44 8.36-.26 6.02-2.59 12-9.41 12.43q-1.19.08-.38-.8c2.98-3.19 4.33-6.56 4.47-10.88z"/><path d="m158.02 251.06c.35-2.63.58-4.6-.44-7.11q-1.02-2.52-2.37-4.8c-2.67-4.54-2.59-9.46 2-12.88q1.55-1.14 1.06.72c-.78 2.96-.72 5.56.89 8.25 3.33 5.52 5.52 11.57-.39 16.24q-.9.71-.75-.42z"/><path d="m93.28 250c1.72-2.21 3.15-5.01 3.34-7.83.21-3.19-.28-7.08 1.35-9.89q2.04-3.52 6.79-4.39 1.61-.29.61 1c-1.59 2.07-3.26 4.17-3.25 6.91.03 6.04-.54 14.06-8.47 14.87a.42.42 0 0 1 -.37-.67z"/><path d="m145 253.86c1.68-4.58.41-8.47-1.49-12.73-2.25-5.03-1.31-9.65 3.84-12.56q.99-.57.59.51-1.93 5.21.45 10.03c2.42 4.9 3.24 10.45-1.58 14.33q-.67.53-1.49.77a.27.27 0 0 1 -.32-.35z"/><path d="m108.05 248.81c2.14-6.64-3.64-16.75 7.28-19q1.26-.26.55.81c-1.52 2.29-2.65 4.72-2.45 7.59.45 6.44 1.08 12.58-6.52 15.26q-1.43.5-.64-.8 1.14-1.88 1.78-3.86z"/><path d="m131.62 241.47c-1.38-4.88.16-9.26 4.96-11.33q1.41-.61.73.76c-2.71 5.53-.35 8.68.54 13.98q1.17 6.96-5.02 10.31-1.21.66-.7-.62c1.93-4.84.82-8.38-.51-13.1z"/><path d="m126.09 232.35c-1.54 2.71-1.71 5.45-.95 8.39 1.48 5.73.88 11.57-5.1 14.17q-1.5.66-.78-.81 2.51-5.04.85-11.82-2.2-9 6.28-12.03a.35.35 0 0 1 .45.44q-.29.84-.75 1.66z"/></g></svg>